<svg xmlns="http://www.w3.org/2000/svg" width="100" height="24" viewBox="0 0 100 24">
  <path fill="#FFFFFF" fill-rule="evenodd" d="M201.613281,38.8496094 C201.613281,35.2831853 202.5371,32.4687603 204.384766,30.40625 C206.318369,28.2578018 208.874984,27.1835938 212.054688,27.1835938 C214.804701,27.1835938 217.082022,27.8496027 218.886719,29.1816406 C220.648446,30.5996165 221.70117,32.4472542 222.044922,34.7246094 L218.951172,34.7246094 C218.048824,34.7246094 217.382815,34.3164103 216.953125,33.5 C216.652342,32.9843724 216.222659,32.5117209 215.664062,32.0820312 C214.804683,31.4804657 213.666023,31.1796875 212.248047,31.1796875 C210.400381,31.1796875 208.939458,31.8456965 207.865234,33.1777344 C206.79101,34.5957102 206.253906,36.4863163 206.253906,38.8496094 C206.253906,41.2558714 206.812494,43.1464775 207.929688,44.5214844 C209.003912,45.8535223 210.529287,46.5195312 212.505859,46.5195312 C213.966804,46.5195312 215.169917,46.1113322 216.115234,45.2949219 C217.060552,44.4355426 217.662108,43.2539138 217.919922,41.75 L215.212891,41.75 C214.568356,41.75 214.02051,41.5244163 213.569336,41.0732422 C213.118162,40.6220681 212.892578,40.074222 212.892578,39.4296875 L212.892578,37.9472656 L222.109375,37.9472656 L222.109375,50 L220.884766,50 C219.681635,50 218.929689,49.3984435 218.628906,48.1953125 L218.435547,47.3574219 C217.662106,48.474615 216.738287,49.291013 215.664062,49.8066406 C214.546869,50.2792992 213.322272,50.515625 211.990234,50.515625 C208.810531,50.515625 206.296884,49.4629012 204.449219,47.3574219 C202.558584,45.2949116 201.613281,42.4590024 201.613281,38.8496094 Z M222.939453,41.234375 C222.939453,40.0742129 223.100584,38.9140683 223.422852,37.7539062 C223.745119,36.5937442 224.249997,35.626957 224.9375,34.8535156 C226.054693,33.5644467 227.494132,32.801759 229.255859,32.5654297 C229.814456,32.490234 230.35156,32.4526367 230.867188,32.4526367 C232.005865,32.4526367 233.058589,32.629881 234.025391,32.984375 C235.658211,33.6289095 236.861324,34.7460858 237.634766,36.3359375 C238.365238,37.7539133 238.730469,39.4081937 238.730469,41.2988281 C238.730469,42.673835 238.58008,43.8554638 238.279297,44.84375 C237.978514,45.8320362 237.591799,46.6699184 237.119141,47.3574219 C236.087885,48.7753977 234.777352,49.6562483 233.1875,50 C232.414059,50.2148448 231.635258,50.3222656 230.851074,50.3222656 C230.20654,50.3222656 229.556644,50.2470711 228.901367,50.0966797 C227.461907,49.7744125 226.312504,49.2265664 225.453125,48.453125 C224.550777,47.6796836 223.906252,46.6377019 223.519531,45.3271484 C223.132811,44.016595 222.939453,42.6523508 222.939453,41.234375 Z M227.322266,41.5244141 C227.408204,43.479502 227.773434,44.8437461 228.417969,45.6171875 C228.675783,45.9609392 229.12695,46.2509754 229.771484,46.4873047 C230.125978,46.6162116 230.485838,46.6806641 230.851074,46.6806641 C231.141115,46.6806641 231.436522,46.6376957 231.737305,46.5517578 C232.403324,46.3583975 232.994138,45.8750039 233.509766,45.1015625 C234.025393,44.3281211 234.304687,43.0820398 234.347656,41.3632812 C234.347656,39.8163985 234.100588,38.6562539 233.606445,37.8828125 C233.112302,37.1093711 232.542972,36.6152354 231.898438,36.4003906 C231.554686,36.282226 231.21631,36.2231445 230.883301,36.2231445 L229.964844,36.3681641 C229.320309,36.5615244 228.847658,36.8085922 228.546875,37.109375 C227.719722,38.0117233 227.306152,39.316886 227.306152,41.0249023 C227.306152,41.186036 227.311523,41.3525382 227.322266,41.5244141 Z M239.689453,50 L239.689453,30.1484375 C239.689453,29.503903 239.915037,28.9560569 240.366211,28.5048828 C240.817385,28.0537087 241.365231,27.828125 242.009766,27.828125 L255.802734,27.828125 L255.802734,31.6308594 L244.201172,31.6308594 L244.201172,36.4003906 L252.837891,36.4003906 L252.837891,37.8828125 C252.837891,38.527347 252.612307,39.0751931 252.161133,39.5263672 C251.709959,39.9775413 251.162113,40.203125 250.517578,40.203125 L244.201172,40.203125 L244.201172,45.875 L255.802734,45.875 L255.802734,50 L239.689453,50 Z M256.439453,44.9082031 C256.439453,43.1035066 256.965815,41.814457 258.018555,41.0410156 C259.071294,40.2675743 260.414054,39.7519544 262.046875,39.4941406 C262.26172,39.4941406 262.51953,39.4619144 262.820312,39.3974609 C263.121095,39.3330075 263.464842,39.2792971 263.851562,39.2363281 C265.742197,38.9785143 266.6875,38.4199262 266.6875,37.5605469 C266.6875,36.9160124 266.354496,36.4970713 265.688477,36.3037109 C265.022458,36.1103506 264.410159,36.0136719 263.851562,36.0136719 C263.249997,36.0136719 262.712893,36.0996085 262.240234,36.2714844 C261.767576,36.4433602 261.423829,36.7656226 261.208984,37.2382812 L256.890625,37.2382812 C257.062501,35.9062433 257.664057,34.8105512 258.695312,33.9511719 C259.855475,32.9628857 261.509755,32.46875 263.658203,32.46875 C266.064465,32.46875 267.869135,32.876949 269.072266,33.6933594 C270.318366,34.5527387 270.941406,35.7558516 270.941406,37.3027344 L270.941406,43.1679688 C270.941406,44.8867273 270.629886,46.2294874 270.006836,47.1962891 C269.383786,48.1630908 268.642582,48.861326 267.783203,49.2910156 C266.880855,49.7636742 265.92481,50.0537104 264.915039,50.1611328 C263.905268,50.2685552 263.013676,50.3222656 262.240234,50.3222656 C260.693352,50.3222656 259.33985,49.9033245 258.179688,49.0654297 C257.019525,48.2275349 256.439453,46.8418065 256.439453,44.9082031 Z M260.628906,44.7792969 C260.628906,45.4238313 260.822264,45.9394512 261.208984,46.3261719 C261.595705,46.6699236 262.154293,46.8417969 262.884766,46.8417969 C264.087897,46.8417969 265.0332,46.4980503 265.720703,45.8105469 C266.408207,45.1230434 266.751953,44.1777404 266.751953,42.9746094 L266.751953,41.3632812 C266.150388,41.664064 265.312505,41.9433581 264.238281,42.2011719 L262.755859,42.5234375 C261.982418,42.7382823 261.42383,43.0175764 261.080078,43.3613281 C260.779295,43.8339867 260.628906,44.3066383 260.628906,44.7792969 Z M271.449219,44.5214844 L271.449219,44.328125 L275.832031,44.328125 C275.875,45.1875043 276.197263,45.8320291 276.798828,46.2617188 C277.443363,46.6914084 278.302729,46.90625 279.376953,46.90625 C280.150394,46.90625 280.816403,46.7558609 281.375,46.4550781 C281.890628,46.1542954 282.148438,45.7460963 282.148438,45.2304688 C282.148438,44.4570274 281.246103,43.8769551 279.441406,43.4902344 C278.667965,43.3613275 278.087893,43.2324225 277.701172,43.1035156 C275.423817,42.5449191 273.898441,41.8789101 273.125,41.1054688 C272.265621,40.3320274 271.835938,39.3007877 271.835938,38.0117188 C271.835938,36.3788981 272.458978,35.025396 273.705078,33.9511719 C274.994147,32.9628857 276.669912,32.46875 278.732422,32.46875 C280.966808,32.46875 282.749993,32.9628857 284.082031,33.9511719 C285.328131,35.025396 285.99414,36.4218664 286.080078,38.140625 L283.308594,38.140625 C282.492183,38.140625 281.869143,37.7753943 281.439453,37.0449219 L280.923828,36.5292969 C280.408201,36.1425762 279.699223,35.9492188 278.796875,35.9492188 C277.937496,35.9492188 277.292971,36.0781237 276.863281,36.3359375 C276.476561,36.5937513 276.283203,36.9804662 276.283203,37.4960938 C276.283203,38.1835972 277.400379,38.7636695 279.634766,39.2363281 C279.892579,39.3222661 280.118163,39.3867185 280.311523,39.4296875 C280.504884,39.4726565 280.687499,39.4941406 280.859375,39.4941406 C283.050792,40.0527372 284.576168,40.697262 285.435547,41.4277344 C286.251957,42.2011757 286.660156,43.2324154 286.660156,44.5214844 C286.660156,46.4121188 285.972663,47.8730417 284.597656,48.9042969 C283.308587,49.8496141 281.375013,50.3222656 278.796875,50.3222656 C276.347644,50.3222656 274.52149,49.8281299 273.318359,48.8398438 C272.072259,47.8515576 271.449219,46.4121188 271.449219,44.5214844 Z M288.134766,46.7773438 L288.134766,27.828125 L290.455078,27.828125 C291.013675,27.828125 291.50781,28.0429666 291.9375,28.4726562 C292.36719,28.9023459 292.582031,29.4179657 292.582031,30.0195312 L292.582031,32.9199219 L295.224609,32.9199219 L295.224609,33.8222656 C295.224609,34.4668001 295.009768,34.993162 294.580078,35.4013672 C294.150388,35.8095724 293.634769,36.0136719 293.033203,36.0136719 L292.582031,36.0136719 L292.582031,45.5527344 C292.582031,46.2832068 293.011714,46.6484375 293.871094,46.6484375 L295.224609,46.6484375 L295.224609,50 C294.655271,50.0322267 294.069827,50.0483398 293.468262,50.0483398 C292.565913,50.0483398 291.615239,50.0107426 290.616211,49.9355469 C288.961906,49.80664 288.134766,48.7539161 288.134766,46.7773438 Z M295.861328,30.1484375 C295.861328,29.503903 296.086912,28.9560569 296.538086,28.5048828 C296.98926,28.0537087 297.537106,27.828125 298.181641,27.828125 L300.4375,27.828125 L299.664062,43.7480469 L296.634766,43.7480469 L295.861328,30.1484375 Z M295.925781,50 L295.925781,47.2285156 C295.925781,46.1113225 296.484369,45.5527344 297.601562,45.5527344 L300.373047,45.5527344 L300.373047,50 L295.925781,50 Z" transform="translate(-201 -27)"/>
</svg>
